<svg width="44.000000" height="44.000000" viewBox="0 0 44 44" fill="none" xmlns="http://www.w3.org/2000/svg" xmlns:xlink="http://www.w3.org/1999/xlink">
	<desc>
			Created with Pixso.
	</desc>
	<defs>
		<filter id="filter_1_224_dd" x="0.000000" y="0.000000" width="44.000000" height="44.000000" filterUnits="userSpaceOnUse" color-interpolation-filters="sRGB">
			<feFlood flood-opacity="0" result="BackgroundImageFix"/>
			<feColorMatrix in="SourceAlpha" type="matrix" values="0 0 0 0 0 0 0 0 0 0 0 0 0 0 0 0 0 0 127 0" result="hardAlpha"/>
			<feOffset dx="0" dy="4"/>
			<feGaussianBlur stdDeviation="1.33333"/>
			<feComposite in2="hardAlpha" operator="out" k2="-1" k3="1"/>
			<feColorMatrix type="matrix" values="0 0 0 0 0 0 0 0 0 0 0 0 0 0 0 0 0 0 0.25 0"/>
			<feBlend mode="normal" in2="BackgroundImageFix" result="effect_dropShadow_1"/>
			<feBlend mode="normal" in="SourceGraphic" in2="effect_dropShadow_1" result="shape"/>
		</filter>
		<clipPath id="clip1_224">
			<rect id="Frame" width="36.000000" height="36.000000" transform="translate(4.000000 0.000000)" fill="white" fill-opacity="0"/>
		</clipPath>
	</defs>
	<g filter="url(#filter_1_224_dd)">
		<rect id="Frame" width="36.000000" height="36.000000" transform="translate(4.000000 0.000000)" fill="#FFFFFF" fill-opacity="0"/>
		<g clip-path="url(#clip1_224)">
			<path id="Vector" d="M22 11.5312C23.125 11.5312 24.1938 11.8687 25.2062 12.4312C26.2188 12.9937 27.0062 13.7812 27.5688 14.7935C28.1312 15.8062 28.4688 16.875 28.4688 18C28.4688 19.1812 28.1312 20.25 27.5688 21.2622C27.0062 22.2749 26.2188 23.0625 25.2062 23.625C24.1938 24.1875 23.125 24.4688 22 24.4688C20.8188 24.4688 19.75 24.1875 18.7375 23.625C17.725 23.0625 16.9375 22.2749 16.375 21.2622C15.8125 20.25 15.5312 19.1812 15.5312 18C15.5312 16.875 15.8125 15.8062 16.375 14.7935C16.9375 13.7812 17.725 12.9937 18.7375 12.4312C19.75 11.8687 20.8188 11.5312 22 11.5312ZM22 22.2188C23.125 22.2188 24.1375 21.8247 24.9812 20.981C25.7688 20.1938 26.2188 19.1812 26.2188 18C26.2188 16.875 25.7688 15.8623 24.9812 15.0186C24.1375 14.231 23.125 13.7812 22 13.7812C20.8188 13.7812 19.8063 14.231 19.0188 15.0186C18.175 15.8623 17.7812 16.875 17.7812 18C17.7812 19.1812 18.175 20.1938 19.0188 20.981C19.8063 21.8247 20.8188 22.2188 22 22.2188ZM30.2688 11.25C30.2688 10.856 30.1 10.5186 29.8188 10.1812C29.4812 9.8999 29.1438 9.73096 28.75 9.73096C28.3 9.73096 27.9625 9.8999 27.6812 10.1812C27.3438 10.5186 27.2312 10.856 27.2312 11.25C27.2312 11.6997 27.3438 12.0376 27.6812 12.3188C27.9625 12.6562 28.3 12.7686 28.75 12.7686C29.1438 12.7686 29.4812 12.6562 29.7625 12.3188C30.0438 12.0376 30.2125 11.6997 30.2688 11.25ZM34.5438 12.7686C34.5438 13.8374 34.6 15.5811 34.6 18C34.6 20.4751 34.5438 22.2188 34.4875 23.2876C34.4312 24.356 34.2625 25.2559 34.0375 26.0439C33.7 27 33.1375 27.8438 32.4625 28.5186C31.7875 29.1938 30.9438 29.6997 30.0438 30.0376C29.2562 30.3188 28.3 30.4873 27.2312 30.5439C26.1625 30.6001 24.4188 30.6001 22 30.6001C19.525 30.6001 17.7812 30.6001 16.7125 30.5439C15.6438 30.4873 14.7438 30.3188 13.9563 29.981C13 29.6997 12.1562 29.1938 11.4813 28.5186C10.8063 27.8438 10.3 27 9.9625 26.0439C9.68125 25.2559 9.5125 24.356 9.45625 23.2876C9.4 22.2188 9.4 20.4751 9.4 18C9.4 15.5811 9.4 13.8374 9.45625 12.7686C9.5125 11.6997 9.68125 10.7437 9.9625 9.95605C10.3 9.05615 10.8063 8.2124 11.4813 7.5376C12.1562 6.8623 13 6.2998 13.9563 5.9624C14.7438 5.7373 15.6438 5.56885 16.7125 5.51221C17.7812 5.45605 19.525 5.3999 22 5.3999C24.4188 5.3999 26.1625 5.45605 27.2312 5.51221C28.3 5.56885 29.2562 5.7373 30.0438 5.9624C30.9438 6.2998 31.7875 6.8623 32.4625 7.5376C33.1375 8.2124 33.7 9.05615 34.0375 9.95605C34.2625 10.7437 34.4312 11.6997 34.5438 12.7686ZM31.8438 25.4248C32.0688 24.8062 32.1812 23.7939 32.2938 22.3872C32.2938 21.6001 32.35 20.4189 32.35 18.8999L32.35 17.1001C32.35 15.5811 32.2938 14.3999 32.2938 13.6123C32.1812 12.2061 32.0688 11.1938 31.8438 10.5747C31.3938 9.44971 30.55 8.60596 29.425 8.15625C28.8062 7.93115 27.7938 7.81885 26.3875 7.70605C25.5438 7.70605 24.3625 7.6499 22.9 7.6499L21.1 7.6499C19.5813 7.6499 18.4 7.70605 17.6125 7.70605C16.2063 7.81885 15.1938 7.93115 14.575 8.15625C13.3938 8.60596 12.6063 9.44971 12.1562 10.5747C11.9313 11.1938 11.7625 12.2061 11.7063 13.6123C11.65 14.4561 11.65 15.6372 11.65 17.1001L11.65 18.8999C11.65 20.4189 11.65 21.6001 11.7063 22.3872C11.7625 23.7939 11.9313 24.8062 12.1562 25.4248C12.6063 26.606 13.45 27.3936 14.575 27.8438C15.1938 28.0688 16.2063 28.2373 17.6125 28.2939C18.4 28.3501 19.5813 28.3501 21.1 28.3501L22.9 28.3501C24.4188 28.3501 25.6 28.3501 26.3875 28.2939C27.7938 28.2373 28.8062 28.0688 29.425 27.8438C30.55 27.3936 31.3938 26.5498 31.8438 25.4248Z" fill="#000000" fill-opacity="1.000000" fill-rule="nonzero"/>
		</g>
	</g>
</svg>
