<svg width="26.000000" height="26.000000" viewBox="0 0 26 26" fill="none" xmlns="http://www.w3.org/2000/svg" xmlns:xlink="http://www.w3.org/1999/xlink">
	<desc>
			Created with Pixso.
	</desc>
	<defs>
		<clipPath id="clip1_230">
			<rect id="Frame" width="26.000000" height="26.000000" fill="white" fill-opacity="0"/>
		</clipPath>
	</defs>
	<rect id="Frame" width="26.000000" height="26.000000" fill="#FFFFFF" fill-opacity="0"/>
	<g clip-path="url(#clip1_230)">
		<path id="Vector" d="M22.1509 22.1562L18.3008 22.1562L18.3008 16.123C18.3008 14.6846 18.2715 12.833 16.2944 12.833C14.287 12.833 13.9804 14.3984 13.9804 16.0171L13.9804 22.1562L10.1302 22.1562L10.1302 9.75L13.8288 9.75L13.8288 11.4409L13.8786 11.4409C14.3953 10.4663 15.652 9.43701 17.5294 9.43701C21.4305 9.43701 22.152 12.0044 22.152 15.3467L22.152 22.1562L22.1509 22.1562ZM5.78175 8.05225C4.54242 8.05225 3.54683 7.04932 3.54683 5.81543C3.54683 4.58252 4.5435 3.58057 5.78175 3.58057C7.01675 3.58057 8.01775 4.58252 8.01775 5.81543C8.01775 7.04932 7.01567 8.05225 5.78175 8.05225ZM7.71225 22.1562L3.85126 22.1562L3.85126 9.75L7.71225 9.75L7.71225 22.1562ZM24.0771 0L1.91858 0C0.858002 0 0 0.838379 0 1.87305L0 24.127C0 25.1626 0.858002 26 1.91858 26L24.0738 26C25.1333 26 26 25.1626 26 24.127L26 1.87305C26 0.838379 25.1333 0 24.0738 0L24.0771 0Z" fill="#000000" fill-opacity="1.000000" fill-rule="nonzero"/>
	</g>
</svg>
