<svg width="36.000000" height="36.000000" viewBox="0 0 36 36" fill="none" xmlns="http://www.w3.org/2000/svg" xmlns:xlink="http://www.w3.org/1999/xlink">
	<desc>
			Created with Pixso.
	</desc>
	<defs>
		<clipPath id="clip1_228">
			<rect id="Frame" width="36.000000" height="36.000000" fill="white" fill-opacity="0"/>
		</clipPath>
	</defs>
	<rect id="Frame" width="36.000000" height="36.000000" fill="#FFFFFF" fill-opacity="0"/>
	<g clip-path="url(#clip1_228)">
		<path id="Vector" d="M27.9914 13.9502C28.9759 13.2358 29.8616 12.3794 30.6 11.332C29.6156 11.7607 28.6313 12.0464 27.6469 12.1411C28.7296 11.4751 29.5171 10.5708 29.911 9.38086C28.8774 9.95215 27.7945 10.3804 26.6134 10.5708C26.1211 10.0947 25.5305 9.71387 24.8906 9.42822C24.2509 9.14258 23.5616 9 22.8235 9C21.8884 9 21.0515 9.23779 20.264 9.6665C19.4765 10.1421 18.8366 10.7612 18.3938 11.5225C17.9016 12.2842 17.7047 13.1406 17.7047 13.9976C17.7047 14.3784 17.7047 14.7593 17.8031 15.1401C15.6867 15.0449 13.718 14.5688 11.8477 13.6167C9.97735 12.7124 8.45156 11.4751 7.17188 9.9043C6.6797 10.7134 6.43359 11.5703 6.43359 12.4268C6.43359 13.2837 6.63046 14.0928 7.07344 14.8066C7.46719 15.5684 8.05781 16.1396 8.74689 16.6152C7.91016 16.6152 7.12266 16.3774 6.43359 15.9492L6.43359 16.0444C6.43359 17.2344 6.82735 18.2812 7.61485 19.1855C8.40235 20.1377 9.38671 20.7085 10.568 20.9468C10.0758 21.042 9.63281 21.0894 9.18985 21.0894C8.89454 21.0894 8.55 21.0894 8.25469 21.042C8.55 22.0415 9.14063 22.8506 10.0266 23.5166C10.9125 24.1831 11.8969 24.4688 13.0781 24.4688C11.1586 25.8965 8.99297 26.6108 6.63046 26.6108C6.13829 26.6108 5.74454 26.6108 5.4 26.563C7.7625 28.0859 10.4203 28.7998 13.3242 28.7998C16.3266 28.7998 18.9844 28.0859 21.3469 26.563C23.4634 25.2305 25.1366 23.4692 26.318 21.1846C27.45 19.0903 28.0406 16.8535 28.0406 14.5688C28.0406 14.2832 27.9914 14.0928 27.9914 13.9502Z" fill="#000000" fill-opacity="1.000000" fill-rule="nonzero"/>
	</g>
</svg>
